<svg id="Capa_1" enable-background="new 0 0 512.3 512.3" height="512" viewBox="0 0 512.3 512.3" width="512" xmlns="http://www.w3.org/2000/svg"><g><g><path d="m482.3 136.15c0-8.701-1.199-16.8-3.3-24.901l33.3-19.501-30-52.2-33.6 19.802c-11.7-10.801-26.8-18.6-42.4-23.401v-35.799h-60v35.799c-15.601 4.801-29.7 12.599-41.4 23.401l-33.6-19.801-30 52.2 33.3 19.501c-2.1 8.101-3.3 16.199-3.3 24.901 0 8.699 1.199 16.8 3.3 24.899l-33.3 19.501 30 52.05 9.105-.697 6.192-8.145 18.303-10.809c11.7 10.8 25.8 18.6 41.4 23.399v34.801h60v-34.801c15.601-4.799 30.7-12.599 42.4-23.399l33.6 19.799 30-52.2-33.3-19.501c2.101-8.098 3.3-16.199 3.3-24.898zm-106 45c-24.901 0-45-20.101-45-45 0-24.901 20.099-45 45-45s45 20.099 45 45c0 24.899-20.099 45-45 45z" fill="#dfd7d5"/></g><path d="m298.599 370.75 33.001 18.9-45 77.999-32.701-18.9c-4.199 3.6-8.699 6.301-13.5 9.3h-148.198c-4.801-2.999-9.302-5.7-13.5-9.3l-32.701 18.901-46-77.999 34.001-18.9c-1.8-8.701-2.701-16.8-2.701-24.6s.901-15.901 2.701-24.6l-34.001-18.901 46-77.999 32.701 18.898c12.299-10.499 26.999-18.6 42.599-24.3v-38.099h90v38.099c15.601 5.7 30.3 12.902 42.599 23.401l32.701-18.9 45 78.9-33.001 18.9c1.8 8.699 2.701 16.8 2.701 24.6s-.901 15.899-2.701 24.6z" fill="#68544f"/><path d="m298.599 370.75 33.001 18.9-45 77.999-32.701-18.9c-4.199 3.6-8.699 6.301-13.5 9.3h-74.099v-276.899h45v38.099c15.601 5.7 30.3 12.902 42.599 23.401l32.701-18.9 45 78.9-33.001 18.9c1.8 8.699 2.701 16.8 2.701 24.6s-.901 15.899-2.701 24.6z" fill="#3e322e"/><path d="m479.001 161.049 33.3 19.501-30 52.2-33.6-19.799c-11.7 10.8-26.8 18.6-42.4 23.399v34.801h-30v-90c24.901 0 45-20.101 45-45 0-24.901-20.099-45-45-45v-91h30v35.799c15.601 4.801 30.7 12.599 42.4 23.401l33.6-19.801 30 52.2-33.3 19.501c2.1 8.101 3.3 16.199 3.3 24.901-.001 8.697-1.2 16.798-3.3 24.897z" fill="#c4b3af"/><circle cx="166.3" cy="331.15" fill="#ff6c6c" r="60"/><path d="m240.399 458.05c-9 6-18.6 11.4-29.099 15v39.101h-90v-39.101c-10.499-3.6-20.099-9-29.099-15 3.898-37.5 35.4-66.899 74.099-66.899s70.201 29.399 74.099 66.899z" fill="#ff6c6c"/><g fill="#ff193d"><path d="m166.3 391.15v-120c32.999 0 60 26.999 60 60 0 32.999-27 60-60 60z"/><path d="m240.399 458.05c-9 6-18.6 11.4-29.099 15v39.101h-45v-121c38.7-.001 70.201 29.399 74.099 66.899z"/></g></g></svg>