<svg id="Capa_1" enable-background="new 0 0 512 512" height="512" viewBox="0 0 512 512" width="512" xmlns="http://www.w3.org/2000/svg"><g><path d="m31 32h330v480h-330z" fill="#596c76"/><path d="m193 32h168v480h-168z" fill="#465a61"/><path d="m61 62h270v420h-270z" fill="#edf5ff"/><path d="m193 62h138v420h-138z" fill="#d5e8fe"/><g><path d="m118 0v92h150v-92z" fill="#fdbf00"/></g><path d="m193 0h75v92h-75z" fill="#ff9100"/><g><path d="m451 287v30c0 41.36-33.64 75-75 75h-120c-26.38 0-49.63-13.69-63-34.34-7.59-11.72-12-25.68-12-40.66v-30h30v30c0 24.81 20.19 45 45 45h120c24.81 0 45-20.19 45-45v-30z" fill="#596c76"/></g><path d="m451 287v30c0 41.36-33.64 75-75 75h-120c-26.38 0-49.63-13.69-63-34.34v-70.66h18v30c0 24.81 20.19 45 45 45h120c24.81 0 45-20.19 45-45v-30z" fill="#465a61"/><g><path d="m436 302c-24.813 0-45-20.187-45-45s20.187-45 45-45 45 20.187 45 45-20.187 45-45 45z" fill="#d5e8fe"/><circle cx="436" cy="257" fill="#465a61" r="15"/></g><g><path d="m121 422h150v30h-150z" fill="#596c76"/></g><path d="m193 422h78v30h-78z" fill="#465a61"/><g><path d="m301 182v15c0 57.9-47.1 105-105 105-1 0-2-.01-3-.04-56.52-1.59-102-48.06-102-104.96v-15c0-33.08 26.92-60 60-60v30c-16.54 0-30 13.46-30 30v15c0 40.36 32.03 73.36 72 74.94 1 .04 2 .06 3 .06 41.36 0 75-33.64 75-75v-15c0-16.54-13.46-30-30-30v-30c33.08 0 60 26.92 60 60z" fill="#76e2f8"/></g><path d="m301 182v15c0 57.9-47.1 105-105 105-1 0-2-.01-3-.04v-30.02c1 .04 2 .06 3 .06 41.36 0 75-33.64 75-75v-15c0-16.54-13.46-30-30-30v-30c33.08 0 60 26.92 60 60z" fill="#4bb9ec"/></g></svg>